<svg width="30" height="36" viewBox="0 0 28 35" fill="none" xmlns="http://www.w3.org/2000/svg">
<g clip-path="url(#clip0_501_41)">
<path fill-rule="evenodd" clip-rule="evenodd" d="M27.4144 1.10859L22.9882 0.453111C22.8572 0.426891 22.7263 0.479327 22.6739 0.531766L20.7882 2.99638C20.6572 3.1537 20.6311 3.36345 20.6834 3.54699C20.7358 3.73052 20.5787 3.88785 20.3954 3.86163L18.8501 3.52077C18.6144 3.46833 18.3525 3.54699 18.1953 3.75675L12.0668 11.6226C11.962 11.7798 11.7525 11.8323 11.5692 11.7537L9.23824 10.7049C9.02869 10.6 8.79302 10.6262 8.60969 10.7573L7.43109 11.5701C7.24776 11.7012 6.98588 11.7274 6.77633 11.6226L6.20016 11.3341C5.8335 11.1506 5.38823 11.3604 5.28351 11.7537L4.86444 13.6152C4.75968 14.0609 4.94301 14.5066 5.33585 14.7427L6.22633 15.2932L9.08107 17.05L10.4692 17.9152C10.862 18.1511 11.3597 18.0987 11.7001 17.8103L14.0311 15.7652C14.2144 15.6079 14.5025 15.5554 14.712 15.6865L15.4192 16.0536C15.6549 16.1847 15.943 16.1323 16.1263 15.9487L17.3049 14.8475C17.4882 14.664 17.7763 14.6377 17.9858 14.7427L19.7406 15.5554C20.0025 15.6865 20.3168 15.6079 20.5001 15.3719L21.312 14.3231L27.4668 6.43109C27.7548 6.06403 27.5715 5.51346 27.1001 5.40854L25.7382 5.09393C25.4501 5.04149 25.3191 4.67442 25.5287 4.46467L27.6501 1.81651C27.8596 1.50188 27.7287 1.16103 27.4144 1.10859ZM7.11667 16.9975C6.98567 16.9189 6.85473 17.0499 6.90712 17.181L7.56189 18.9115C7.61427 19.0426 7.61427 19.1737 7.58805 19.3048L7.01189 21.5597C6.98567 21.717 7.03806 21.8743 7.14284 21.9529L8.79281 23.2377C8.94998 23.3426 9.15948 23.3426 9.29042 23.2115L11.019 21.6908C11.1238 21.6121 11.2547 21.5597 11.3595 21.5335L13.3238 21.3237C13.4547 21.2975 13.5071 21.114 13.3761 21.0353L7.11667 16.9975ZM6.14773 22.7658C6.27872 22.7134 6.43583 22.7395 6.54061 22.8182L8.32153 24.1816C8.40014 24.2603 8.45252 24.3652 8.45252 24.4963L8.29536 26.4889C8.26919 26.5938 8.24297 26.6724 8.16442 26.7511L0.490622 34.4596C0.438241 34.5383 0.333477 34.4596 0.385858 34.3809L2.50728 30.8938C2.53347 30.8675 2.50728 30.8151 2.48109 30.7889H2.40252L1.72157 31.0511C1.66919 31.0511 1.643 31.0249 1.61681 30.9986V30.9462L4.57632 23.631C4.6287 23.5523 4.68109 23.4737 4.75966 23.4475L6.14773 22.7658Z" fill="#8257E6"/>
</g>
<defs>
<clipPath id="clip0_501_41">
<rect width="28.0011" height="34.324" fill="white" transform="translate(0 0.258186)"/>
</clipPath>
</defs>
</svg>
